<?xml version="1.0" encoding="UTF-8"?>
<svg id="_Шар_1" data-name="Шар 1" xmlns="http://www.w3.org/2000/svg" viewBox="0 0 40 40">
  <defs>
    <style>
      .cls-1 {
        fill: #fcc57b;
        fill-rule: evenodd;
      }
    </style>
  </defs>
  <path class="cls-1" d="M20,4C11.16,4,4,11.16,4,20c0,4.2,1.62,8.02,4.26,10.88,.1-.33,.23-.66,.41-.97,.59-1.05,1.33-2.02,2.21-2.88,.88-.86,1.88-1.59,2.95-2.16-1.64-1.57-2.66-3.76-2.66-6.2,0-4.83,4-8.67,8.83-8.67s8.83,3.84,8.83,8.67c0,2.44-1.02,4.63-2.66,6.2,1.07,.57,2.07,1.3,2.95,2.16,.88,.86,1.62,1.83,2.21,2.88,.17,.31,.31,.64,.41,.97,2.65-2.86,4.26-6.68,4.26-10.88,0-8.84-7.16-16-16-16Zm7.88,29.93c.08-.4,.12-.77,.12-1.11,0-.55-.1-.85-.16-.96-.4-.72-.91-1.38-1.51-1.97-1.67-1.63-3.94-2.56-6.32-2.56s-4.66,.92-6.32,2.56c-.61,.59-1.11,1.26-1.51,1.97-.06,.11-.16,.41-.16,.96,0,.33,.04,.71,.12,1.11,2.33,1.32,5.01,2.07,7.88,2.07s5.56-.75,7.88-2.07Zm-7.88-10.59c2.71,0,4.83-2.13,4.83-4.67s-2.12-4.67-4.83-4.67-4.83,2.13-4.83,4.67,2.12,4.67,4.83,4.67ZM0,20C0,8.95,8.95,0,20,0s20,8.95,20,20c0,7.11-3.72,13.36-9.3,16.9-3.09,1.96-6.77,3.1-10.7,3.1s-7.6-1.14-10.7-3.1C3.72,33.36,0,27.11,0,20Z"/>
</svg>